<?xml version="1.0" encoding="iso-8859-1"?>
<svg version="1.1" xmlns="http://www.w3.org/2000/svg" xmlns:xlink="http://www.w3.org/1999/xlink" x="0px" y="0px" width="32pt" height="32pt" viewBox="0 0 512 512" style="enable-background:new 0 0 512 512;" xml:space="preserve">
	<path d="M473.119,181.538h-18.217L373.335,27.696c-3.881-7.32-12.961-10.105-20.281-6.228c-7.32,3.881-10.108,12.961-6.227,20.281l74.116,139.787H93.233l74.116-139.787c3.881-7.32,1.093-16.4-6.227-20.281c-7.319-3.88-16.4-1.092-20.281,6.228L59.275,181.538H38.881C17.442,181.538,0,198.98,0,220.419C0,241.858,17.442,259.3,38.881,259.3h1.079c0.033,0.214,0.058,0.429,0.096,0.643L71.34,435.357c5.883,32.984,34.47,56.924,67.974,56.924H374.86c33.504,0,62.092-23.94,67.974-56.924l31.284-175.414c0.04-0.223,0.067-0.447,0.101-0.67c20.931-0.587,37.78-17.784,37.78-38.854C512,198.979,494.558,181.538,473.119,181.538z M413.299,430.09c-3.326,18.652-19.492,32.19-38.438,32.19H139.315c-18.946,0-35.111-13.537-38.438-32.19L70.419,259.3h373.34L413.299,430.09z M473.119,229.297H38.881c-4.896,0-8.878-3.982-8.878-8.878c0-4.896,3.982-8.879,8.878-8.879h434.238c4.895,0,8.878,3.982,8.878,8.879C481.997,225.315,478.015,229.297,473.119,229.297z"/>
	<path d="M255.352,280.113c-8.285,0-15.001,6.717-15.001,15.001v131.351c0,8.285,6.717,15.001,15.001,15.001c8.285,0,15.001-6.717,15.001-15.001V295.114C270.353,286.829,263.637,280.113,255.352,280.113z"/>
	<path d="M204.169,423.974l-22.124-131.351c-1.375-8.171-9.12313.679-17.285-12.302c-8.17,1.376-13.677,9.115-12.301,17.285l22.125,131.351c1.234,7.327,7.585,12.512,14.774,12.512c0.828,0,1.667-0.068,2.509-0.21C200.038,439.883,205.545,432.144,204.169,423.974z"/>
	<path d="M344.895,280.321c-8.161-1.369-15.907,4.131-17.285,12.302l-22.124,131.351c-1.375,8.169,4.132,15.908,12.302,17.285c0.843,0.142,1.681,0.21,2.509,0.21c7.19,0,13.541-5.185,14.774-12.512l22.124-131.351C358.573,289.436,353.065,281.697,344.895,280.321z"/>
</svg>
