<svg id="line" height="512" viewBox="0 0 53 53" width="512" xmlns="http://www.w3.org/2000/svg">
  <path d="m22 31h-11a1 1 0 0 0 0 2h11a1 1 0 0 0 0-2z" fill="#000"/>
  <path d="m40 28h-12a1 1 0 0 0 -1 1v12a1 1 0 0 0 1 1h12a1 1 0 0 0 1-1v-12a1 1 0 0 0 -1-1zm-1 12h-10v-10h10z" fill="#000" />
  <path d="m51 20v-4a1.485 1.485 0 0 0 -.086-.406l-3.443-7.748a3.491 3.491 0 0 0 -.971-6.846h-41a3.491 3.491 0 0 0 -.971 6.846l-3.443 7.748a1.427 1.427 0 0 0 -.086.406v4a5.009 5.009 0 0 0 4 4.9v24.1h-3a1 1 0 0 0 0 2h48a1 1 0 0 0 0-2h-3v-24.1a5.009 5.009 0 0 0 4-4.9zm-47-15.5a1.5 1.5 0 0 1 1.5-1.5h41a1.5 1.5 0 0 1 0 3h-41a1.5 1.5 0 0 1 -1.5-1.5zm2.649 3.5h38.7l3.11 7h-44.92zm34.351 9v3a3 3 0 0 1 -6 0v-3zm-8 0v3a3 3 0 0 1 -6 0v-3zm-8 0v3a3 3 0 0 1 -6 0v-3zm-8 0v3a3 3 0 0 1 -6 0v-3zm-14 3v-3h6v3a3 3 0 0 1 -6 0zm18 29h-9v-11h9zm24 0h-22v-12a1 1 0 0 0 -1-1h-11a1 1 0 0 0 -1 1v12h-3v-24.1a4.994 4.994 0 0 0 3-1.93 4.954 4.954 0 0 0 8 0 4.954 4.954 0 0 0 8 0 4.954 4.954 0 0 0 8 0 4.954 4.954 0 0 0 8 0 4.994 4.994 0 0 0 3 1.93zm1-26a3 3 0 0 1 -3-3v-3h6v3a3 3 0 0 1 -3 3z" fill="#000" />
</svg>